<mxfile host="app.diagrams.net" agent="Mozilla/5.0 (Windows NT 10.0; Win64; x64) AppleWebKit/537.36 (KHTML, like Gecko) Chrome/129.0.0.0 Safari/537.36" version="24.7.17">
  <diagram id="R2lEEEUBdFMjLlhIrx00" name="Page-1">
    <mxGraphModel dx="-1315" dy="714" grid="1" gridSize="10" guides="1" tooltips="1" connect="1" arrows="1" fold="1" page="1" pageScale="1" pageWidth="850" pageHeight="1100" math="0" shadow="0" extFonts="Permanent Marker^https://fonts.googleapis.com/css?family=Permanent+Marker">
      <root>
        <mxCell id="0" />
        <mxCell id="1" parent="0" />
        <mxCell id="D64wUAuGIr6zwj_meo6T-147" value="" style="shape=table;startSize=0;container=1;collapsible=0;childLayout=tableLayout;align=center;verticalAlign=middle;" vertex="1" parent="1">
          <mxGeometry x="2860" y="340" width="190" height="210" as="geometry" />
        </mxCell>
        <mxCell id="D64wUAuGIr6zwj_meo6T-148" value="" style="shape=tableRow;horizontal=0;startSize=0;swimlaneHead=0;swimlaneBody=0;strokeColor=inherit;top=0;left=0;bottom=0;right=0;collapsible=0;dropTarget=0;fillColor=none;points=[[0,0.5],[1,0.5]];portConstraint=eastwest;" vertex="1" parent="D64wUAuGIr6zwj_meo6T-147">
          <mxGeometry width="190" height="56" as="geometry" />
        </mxCell>
        <mxCell id="D64wUAuGIr6zwj_meo6T-149" value="&lt;b&gt;&lt;font style=&quot;font-size: 14px;&quot;&gt;Utilisateur&lt;/font&gt;&lt;/b&gt;" style="shape=partialRectangle;html=1;whiteSpace=wrap;connectable=0;strokeColor=inherit;overflow=hidden;fillColor=none;top=0;left=0;bottom=0;right=0;pointerEvents=1;" vertex="1" parent="D64wUAuGIr6zwj_meo6T-148">
          <mxGeometry width="190" height="56" as="geometry">
            <mxRectangle width="190" height="56" as="alternateBounds" />
          </mxGeometry>
        </mxCell>
        <mxCell id="D64wUAuGIr6zwj_meo6T-150" value="" style="shape=tableRow;horizontal=0;startSize=0;swimlaneHead=0;swimlaneBody=0;strokeColor=inherit;top=0;left=0;bottom=0;right=0;collapsible=0;dropTarget=0;fillColor=none;points=[[0,0.5],[1,0.5]];portConstraint=eastwest;" vertex="1" parent="D64wUAuGIr6zwj_meo6T-147">
          <mxGeometry y="56" width="190" height="154" as="geometry" />
        </mxCell>
        <mxCell id="D64wUAuGIr6zwj_meo6T-151" value="&lt;b&gt;Id&lt;/b&gt;&lt;div&gt;&lt;br&gt;&lt;div style=&quot;&quot;&gt;Nom&lt;/div&gt;&lt;div style=&quot;&quot;&gt;&lt;br&gt;&lt;/div&gt;&lt;div style=&quot;&quot;&gt;Email&lt;/div&gt;&lt;div style=&quot;&quot;&gt;&lt;br&gt;&lt;/div&gt;&lt;div style=&quot;&quot;&gt;Mot de passe&lt;/div&gt;&lt;div&gt;&lt;br&gt;&lt;/div&gt;&lt;/div&gt;" style="shape=partialRectangle;html=1;whiteSpace=wrap;connectable=0;strokeColor=inherit;overflow=hidden;fillColor=none;top=0;left=0;bottom=0;right=0;pointerEvents=1;align=left;spacingLeft=20;" vertex="1" parent="D64wUAuGIr6zwj_meo6T-150">
          <mxGeometry width="190" height="154" as="geometry">
            <mxRectangle width="190" height="154" as="alternateBounds" />
          </mxGeometry>
        </mxCell>
        <mxCell id="D64wUAuGIr6zwj_meo6T-152" value="" style="shape=table;startSize=0;container=1;collapsible=0;childLayout=tableLayout;" vertex="1" parent="1">
          <mxGeometry x="3050" y="600" width="210" height="310" as="geometry" />
        </mxCell>
        <mxCell id="D64wUAuGIr6zwj_meo6T-153" value="" style="shape=tableRow;horizontal=0;startSize=0;swimlaneHead=0;swimlaneBody=0;strokeColor=inherit;top=0;left=0;bottom=0;right=0;collapsible=0;dropTarget=0;fillColor=none;points=[[0,0.5],[1,0.5]];portConstraint=eastwest;" vertex="1" parent="D64wUAuGIr6zwj_meo6T-152">
          <mxGeometry width="210" height="57" as="geometry" />
        </mxCell>
        <mxCell id="D64wUAuGIr6zwj_meo6T-154" value="&lt;b&gt;&lt;font style=&quot;font-size: 14px;&quot;&gt;Tâche&lt;/font&gt;&lt;/b&gt;" style="shape=partialRectangle;html=1;whiteSpace=wrap;connectable=0;strokeColor=inherit;overflow=hidden;fillColor=none;top=0;left=0;bottom=0;right=0;pointerEvents=1;" vertex="1" parent="D64wUAuGIr6zwj_meo6T-153">
          <mxGeometry width="210" height="57" as="geometry">
            <mxRectangle width="210" height="57" as="alternateBounds" />
          </mxGeometry>
        </mxCell>
        <mxCell id="D64wUAuGIr6zwj_meo6T-155" value="" style="shape=tableRow;horizontal=0;startSize=0;swimlaneHead=0;swimlaneBody=0;strokeColor=inherit;top=0;left=0;bottom=0;right=0;collapsible=0;dropTarget=0;fillColor=none;points=[[0,0.5],[1,0.5]];portConstraint=eastwest;" vertex="1" parent="D64wUAuGIr6zwj_meo6T-152">
          <mxGeometry y="57" width="210" height="253" as="geometry" />
        </mxCell>
        <mxCell id="D64wUAuGIr6zwj_meo6T-156" value="&lt;b&gt;Id&lt;/b&gt;&lt;div&gt;&lt;b&gt;&lt;br&gt;&lt;/b&gt;&lt;/div&gt;&lt;div&gt;Nom&lt;/div&gt;&lt;div&gt;&lt;b&gt;&lt;br&gt;&lt;/b&gt;&lt;/div&gt;&lt;div&gt;Description&lt;/div&gt;&lt;div style=&quot;&quot;&gt;&lt;b&gt;&lt;br&gt;&lt;/b&gt;&lt;/div&gt;&lt;div&gt;Statut&lt;/div&gt;&lt;div&gt;&lt;b&gt;&lt;br&gt;&lt;/b&gt;&lt;/div&gt;&lt;div&gt;Priorité&lt;/div&gt;&lt;div&gt;&lt;b&gt;&lt;br&gt;&lt;/b&gt;&lt;/div&gt;&lt;div&gt;Date d&#39;échéance&lt;/div&gt;&lt;div&gt;&lt;b&gt;&lt;br&gt;&lt;/b&gt;&lt;/div&gt;&lt;div&gt;Utilisateur assigné&lt;/div&gt;&lt;div&gt;&lt;b&gt;&lt;br&gt;&lt;/b&gt;&lt;/div&gt;&lt;div&gt;Projet (Lien avec l&#39;entité Projet)&lt;/div&gt;" style="shape=partialRectangle;html=1;whiteSpace=wrap;connectable=0;strokeColor=inherit;overflow=hidden;fillColor=none;top=0;left=0;bottom=0;right=0;pointerEvents=1;align=left;spacingLeft=20;" vertex="1" parent="D64wUAuGIr6zwj_meo6T-155">
          <mxGeometry width="210" height="253" as="geometry">
            <mxRectangle width="210" height="253" as="alternateBounds" />
          </mxGeometry>
        </mxCell>
        <mxCell id="D64wUAuGIr6zwj_meo6T-157" value="" style="shape=table;startSize=0;container=1;collapsible=0;childLayout=tableLayout;" vertex="1" parent="1">
          <mxGeometry x="2670" y="600" width="190" height="260" as="geometry" />
        </mxCell>
        <mxCell id="D64wUAuGIr6zwj_meo6T-158" value="" style="shape=tableRow;horizontal=0;startSize=0;swimlaneHead=0;swimlaneBody=0;strokeColor=inherit;top=0;left=0;bottom=0;right=0;collapsible=0;dropTarget=0;fillColor=none;points=[[0,0.5],[1,0.5]];portConstraint=eastwest;labelBackgroundColor=#66B2FF;" vertex="1" parent="D64wUAuGIr6zwj_meo6T-157">
          <mxGeometry width="190" height="52" as="geometry" />
        </mxCell>
        <mxCell id="D64wUAuGIr6zwj_meo6T-159" value="&lt;b&gt;&lt;font style=&quot;font-size: 14px;&quot;&gt;Projet&lt;/font&gt;&lt;/b&gt;" style="shape=partialRectangle;html=1;whiteSpace=wrap;connectable=0;strokeColor=inherit;overflow=hidden;fillColor=none;top=0;left=0;bottom=0;right=0;pointerEvents=1;" vertex="1" parent="D64wUAuGIr6zwj_meo6T-158">
          <mxGeometry width="190" height="52" as="geometry">
            <mxRectangle width="190" height="52" as="alternateBounds" />
          </mxGeometry>
        </mxCell>
        <mxCell id="D64wUAuGIr6zwj_meo6T-160" value="" style="shape=tableRow;horizontal=0;startSize=0;swimlaneHead=0;swimlaneBody=0;strokeColor=inherit;top=0;left=0;bottom=0;right=0;collapsible=0;dropTarget=0;fillColor=none;points=[[0,0.5],[1,0.5]];portConstraint=eastwest;" vertex="1" parent="D64wUAuGIr6zwj_meo6T-157">
          <mxGeometry y="52" width="190" height="208" as="geometry" />
        </mxCell>
        <mxCell id="D64wUAuGIr6zwj_meo6T-161" value="&lt;b&gt;Id&lt;/b&gt;&lt;div&gt;&lt;b&gt;&lt;br&gt;&lt;/b&gt;&lt;/div&gt;&lt;div&gt;Nom&lt;/div&gt;&lt;div&gt;&lt;b&gt;&lt;br&gt;&lt;/b&gt;&lt;/div&gt;&lt;div&gt;Description&lt;/div&gt;&lt;div&gt;&lt;b&gt;&lt;br&gt;&lt;/b&gt;&lt;/div&gt;&lt;div&gt;Statut&lt;/div&gt;&lt;div&gt;&lt;b&gt;&lt;br&gt;&lt;/b&gt;&lt;/div&gt;&lt;div&gt;Date d&#39;échéance&lt;/div&gt;&lt;div&gt;&lt;b&gt;&lt;br&gt;&lt;/b&gt;&lt;/div&gt;&lt;div&gt;Utilisateur (Créé par)&lt;/div&gt;" style="shape=partialRectangle;html=1;whiteSpace=wrap;connectable=0;strokeColor=inherit;overflow=hidden;fillColor=none;top=0;left=0;bottom=0;right=0;pointerEvents=1;align=left;spacingLeft=20;" vertex="1" parent="D64wUAuGIr6zwj_meo6T-160">
          <mxGeometry width="190" height="208" as="geometry">
            <mxRectangle width="190" height="208" as="alternateBounds" />
          </mxGeometry>
        </mxCell>
        <mxCell id="D64wUAuGIr6zwj_meo6T-183" value="" style="endArrow=classic;html=1;rounded=0;fontSize=12;startSize=8;endSize=8;curved=1;entryX=0.343;entryY=-0.016;entryDx=0;entryDy=0;entryPerimeter=0;exitX=-0.008;exitY=0.152;exitDx=0;exitDy=0;exitPerimeter=0;" edge="1" parent="1" source="D64wUAuGIr6zwj_meo6T-150" target="D64wUAuGIr6zwj_meo6T-158">
          <mxGeometry relative="1" as="geometry">
            <mxPoint x="2750" y="549" as="sourcePoint" />
            <mxPoint x="2910" y="549" as="targetPoint" />
          </mxGeometry>
        </mxCell>
        <mxCell id="D64wUAuGIr6zwj_meo6T-184" value="Créé par" style="edgeLabel;resizable=0;html=1;fontSize=12;;align=center;verticalAlign=middle;" connectable="0" vertex="1" parent="D64wUAuGIr6zwj_meo6T-183">
          <mxGeometry relative="1" as="geometry" />
        </mxCell>
        <mxCell id="D64wUAuGIr6zwj_meo6T-185" value="&lt;b&gt;1&lt;/b&gt;" style="edgeLabel;resizable=0;html=1;fontSize=12;;align=left;verticalAlign=bottom;" connectable="0" vertex="1" parent="D64wUAuGIr6zwj_meo6T-183">
          <mxGeometry x="-1" relative="1" as="geometry">
            <mxPoint x="-21" y="2" as="offset" />
          </mxGeometry>
        </mxCell>
        <mxCell id="D64wUAuGIr6zwj_meo6T-186" value="&lt;b&gt;n&lt;/b&gt;" style="edgeLabel;resizable=0;html=1;fontSize=12;;align=right;verticalAlign=bottom;" connectable="0" vertex="1" parent="D64wUAuGIr6zwj_meo6T-183">
          <mxGeometry x="1" relative="1" as="geometry">
            <mxPoint y="-19" as="offset" />
          </mxGeometry>
        </mxCell>
        <mxCell id="D64wUAuGIr6zwj_meo6T-187" value="" style="endArrow=classic;html=1;rounded=0;fontSize=12;startSize=8;endSize=8;curved=1;entryX=-0.011;entryY=0.396;entryDx=0;entryDy=0;entryPerimeter=0;exitX=1;exitY=0.5;exitDx=0;exitDy=0;" edge="1" parent="1" source="D64wUAuGIr6zwj_meo6T-160" target="D64wUAuGIr6zwj_meo6T-155">
          <mxGeometry relative="1" as="geometry">
            <mxPoint x="2975" y="700" as="sourcePoint" />
            <mxPoint x="2852" y="880" as="targetPoint" />
          </mxGeometry>
        </mxCell>
        <mxCell id="D64wUAuGIr6zwj_meo6T-188" value="Appartient à" style="edgeLabel;resizable=0;html=1;fontSize=12;;align=center;verticalAlign=middle;" connectable="0" vertex="1" parent="D64wUAuGIr6zwj_meo6T-187">
          <mxGeometry relative="1" as="geometry" />
        </mxCell>
        <mxCell id="D64wUAuGIr6zwj_meo6T-189" value="&lt;b&gt;1&lt;/b&gt;" style="edgeLabel;resizable=0;html=1;fontSize=12;;align=left;verticalAlign=bottom;" connectable="0" vertex="1" parent="D64wUAuGIr6zwj_meo6T-187">
          <mxGeometry x="-1" relative="1" as="geometry">
            <mxPoint x="10" y="-10" as="offset" />
          </mxGeometry>
        </mxCell>
        <mxCell id="D64wUAuGIr6zwj_meo6T-190" value="&lt;b&gt;n&lt;/b&gt;" style="edgeLabel;resizable=0;html=1;fontSize=12;;align=right;verticalAlign=bottom;" connectable="0" vertex="1" parent="D64wUAuGIr6zwj_meo6T-187">
          <mxGeometry x="1" relative="1" as="geometry">
            <mxPoint x="-10" y="-11" as="offset" />
          </mxGeometry>
        </mxCell>
        <mxCell id="D64wUAuGIr6zwj_meo6T-191" value="" style="endArrow=classic;html=1;rounded=0;fontSize=12;startSize=8;endSize=8;curved=1;entryX=0.706;entryY=-0.031;entryDx=0;entryDy=0;entryPerimeter=0;exitX=0.998;exitY=0.195;exitDx=0;exitDy=0;exitPerimeter=0;" edge="1" parent="1" source="D64wUAuGIr6zwj_meo6T-150" target="D64wUAuGIr6zwj_meo6T-153">
          <mxGeometry relative="1" as="geometry">
            <mxPoint x="3030" y="444.41" as="sourcePoint" />
            <mxPoint x="3218" y="445.41" as="targetPoint" />
          </mxGeometry>
        </mxCell>
        <mxCell id="D64wUAuGIr6zwj_meo6T-192" value="Assigné à" style="edgeLabel;resizable=0;html=1;fontSize=12;;align=center;verticalAlign=middle;" connectable="0" vertex="1" parent="D64wUAuGIr6zwj_meo6T-191">
          <mxGeometry relative="1" as="geometry" />
        </mxCell>
        <mxCell id="D64wUAuGIr6zwj_meo6T-193" value="&lt;b&gt;1&lt;/b&gt;" style="edgeLabel;resizable=0;html=1;fontSize=12;;align=left;verticalAlign=bottom;" connectable="0" vertex="1" parent="D64wUAuGIr6zwj_meo6T-191">
          <mxGeometry x="-1" relative="1" as="geometry">
            <mxPoint x="9" y="-5" as="offset" />
          </mxGeometry>
        </mxCell>
        <mxCell id="D64wUAuGIr6zwj_meo6T-194" value="&lt;b&gt;n&lt;/b&gt;" style="edgeLabel;resizable=0;html=1;fontSize=12;;align=right;verticalAlign=bottom;" connectable="0" vertex="1" parent="D64wUAuGIr6zwj_meo6T-191">
          <mxGeometry x="1" relative="1" as="geometry">
            <mxPoint x="2" y="-21" as="offset" />
          </mxGeometry>
        </mxCell>
      </root>
    </mxGraphModel>
  </diagram>
</mxfile>
